<svg
        xmlns="http://www.w3.org/2000/svg"
        viewBox="0 0 18 18"
        fill="none"
>
    <path
            d="M2.33333 4.83333H4.83333C5.05435 4.83333 5.26631 4.74554 5.42259 4.58926C5.57887 4.43298 5.66667 4.22101 5.66667 4V3.16667C5.66667 2.72464 5.84226 2.30072 6.15482 1.98816C6.46738 1.67559 6.89131 1.5 7.33333 1.5C7.77536 1.5 8.19928 1.67559 8.51184 1.98816C8.8244 2.30072 9 2.72464 9 3.16667V4C9 4.22101 9.0878 4.43298 9.24408 4.58926C9.40036 4.74554 9.61232 4.83333 9.83333 4.83333H12.3333C12.5543 4.83333 12.7663 4.92113 12.9226 5.07741C13.0789 5.23369 13.1667 5.44565 13.1667 5.66667V8.16667C13.1667 8.38768 13.2545 8.59964 13.4107 8.75592C13.567 8.9122 13.779 9 14 9H14.8333C15.2754 9 15.6993 9.17559 16.0118 9.48816C16.3244 9.80072 16.5 10.2246 16.5 10.6667C16.5 11.1087 16.3244 11.5326 16.0118 11.8452C15.6993 12.1577 15.2754 12.3333 14.8333 12.3333H14C13.779 12.3333 13.567 12.4211 13.4107 12.5774C13.2545 12.7337 13.1667 12.9457 13.1667 13.1667V15.6667C13.1667 15.8877 13.0789 16.0996 12.9226 16.2559C12.7663 16.4122 12.5543 16.5 12.3333 16.5H9.83333C9.61232 16.5 9.40036 16.4122 9.24408 16.2559C9.0878 16.0996 9 15.8877 9 15.6667V14.8333C9 14.3913 8.8244 13.9674 8.51184 13.6548C8.19928 13.3423 7.77536 13.1667 7.33333 13.1667C6.89131 13.1667 6.46738 13.3423 6.15482 13.6548C5.84226 13.9674 5.66667 14.3913 5.66667 14.8333V15.6667C5.66667 15.8877 5.57887 16.0996 5.42259 16.2559C5.26631 16.4122 5.05435 16.5 4.83333 16.5H2.33333C2.11232 16.5 1.90036 16.4122 1.74408 16.2559C1.5878 16.0996 1.5 15.8877 1.5 15.6667V13.1667C1.5 12.9457 1.5878 12.7337 1.74408 12.5774C1.90036 12.4211 2.11232 12.3333 2.33333 12.3333H3.16667C3.60869 12.3333 4.03262 12.1577 4.34518 11.8452C4.65774 11.5326 4.83333 11.1087 4.83333 10.6667C4.83333 10.2246 4.65774 9.80072 4.34518 9.48816C4.03262 9.17559 3.60869 9 3.16667 9H2.33333C2.11232 9 1.90036 8.9122 1.74408 8.75592C1.5878 8.59964 1.5 8.38768 1.5 8.16667V5.66667C1.5 5.44565 1.5878 5.23369 1.74408 5.07741C1.90036 4.92113 2.11232 4.83333 2.33333 4.83333"
            stroke="currentColor"
            strokeWidth="1"
    strokeLinecap="round"
    strokeLinejoin="round"
    />
</svg>
