<svg
        xmlns="http://www.w3.org/2000/svg"
        viewBox="0 0 20 20"
        fill="none"
>
    <path
            d="M7.16667 3H3.83333C3.3731 3 3 3.3731 3 3.83333V7.16667C3 7.6269 3.3731 8 3.83333 8H7.16667C7.6269 8 8 7.6269 8 7.16667V3.83333C8 3.3731 7.6269 3 7.16667 3Z"
            stroke="#667EEA"
            strokeWidth="1"
    strokeLinecap="round"
    strokeLinejoin="round"
    />
    <path
            d="M7.16667 11.6667H3.83333C3.3731 11.6667 3 12.0398 3 12.5V15.8333C3 16.2936 3.3731 16.6667 3.83333 16.6667H7.16667C7.6269 16.6667 8 16.2936 8 15.8333V12.5C8 12.0398 7.6269 11.6667 7.16667 11.6667Z"
            stroke="#667EEA"
            strokeWidth="1"
    strokeLinecap="round"
    strokeLinejoin="round"
    />
    <path
            d="M16.1667 11.6667H12.8333C12.3731 11.6667 12 12.0398 12 12.5V15.8334C12 16.2936 12.3731 16.6667 12.8333 16.6667H16.1667C16.6269 16.6667 17 16.2936 17 15.8334V12.5C17 12.0398 16.6269 11.6667 16.1667 11.6667Z"
            stroke="#667EEA"
            strokeWidth="1"
    strokeLinecap="round"
    strokeLinejoin="round"
    />
    <path
            d="M16.1667 3H12.8333C12.3731 3 12 3.3731 12 3.83333V7.16667C12 7.6269 12.3731 8 12.8333 8H16.1667C16.6269 8 17 7.6269 17 7.16667V3.83333C17 3.3731 16.6269 3 16.1667 3Z"
            stroke="#667EEA"
            strokeWidth="1"
    strokeLinecap="round"
    strokeLinejoin="round"
    />
</svg>
